solid 
   facet normal 0.000000e+00 0.000000e+00 1.000000e+00
      outer loop
         vertex 6.437827e+01 -2.304077e+01 3.000000e+00
         vertex 6.437827e+01 2.295923e+01 3.000000e+00
         vertex 6.137827e+01 -2.204077e+01 3.000000e+00
      endloop
   endfacet
   facet normal 0.000000e+00 0.000000e+00 1.000000e+00
      outer loop
         vertex 6.437827e+01 2.295923e+01 3.000000e+00
         vertex 6.411032e+01 2.395923e+01 3.000000e+00
         vertex 6.137827e+01 2.195923e+01 3.000000e+00
      endloop
   endfacet
   facet normal 0.000000e+00 0.000000e+00 1.000000e+00
      outer loop
         vertex 6.411032e+01 2.395923e+01 3.000000e+00
         vertex 6.337827e+01 2.469128e+01 3.000000e+00
         vertex 6.137827e+01 2.195923e+01 3.000000e+00
      endloop
   endfacet
   facet normal 0.000000e+00 0.000000e+00 1.000000e+00
      outer loop
         vertex 6.337827e+01 2.469128e+01 3.000000e+00
         vertex 6.237827e+01 2.495923e+01 3.000000e+00
         vertex 6.137827e+01 2.195923e+01 3.000000e+00
      endloop
   endfacet
   facet normal -0.000000e+00 0.000000e+00 1.000000e+00
      outer loop
         vertex 6.237827e+01 2.495923e+01 3.000000e+00
         vertex -1.336217e+02 2.495923e+01 3.000000e+00
         vertex -1.326217e+02 2.195923e+01 3.000000e+00
      endloop
   endfacet
   facet normal -0.000000e+00 0.000000e+00 1.000000e+00
      outer loop
         vertex -1.336217e+02 2.495923e+01 3.000000e+00
         vertex -1.346217e+02 2.469128e+01 3.000000e+00
         vertex -1.326217e+02 2.195923e+01 3.000000e+00
      endloop
   endfacet
   facet normal -0.000000e+00 0.000000e+00 1.000000e+00
      outer loop
         vertex -1.346217e+02 2.469128e+01 3.000000e+00
         vertex -1.353538e+02 2.395923e+01 3.000000e+00
         vertex -1.326217e+02 2.195923e+01 3.000000e+00
      endloop
   endfacet
   facet normal -0.000000e+00 0.000000e+00 1.000000e+00
      outer loop
         vertex -1.353538e+02 2.395923e+01 3.000000e+00
         vertex -1.356217e+02 2.295923e+01 3.000000e+00
         vertex -1.326217e+02 2.195923e+01 3.000000e+00
      endloop
   endfacet
   facet normal 0.000000e+00 0.000000e+00 1.000000e+00
      outer loop
         vertex -1.356217e+02 2.295923e+01 3.000000e+00
         vertex -1.356217e+02 -2.304077e+01 3.000000e+00
         vertex -1.326217e+02 -2.204077e+01 3.000000e+00
      endloop
   endfacet
   facet normal 0.000000e+00 -0.000000e+00 1.000000e+00
      outer loop
         vertex -1.356217e+02 -2.304077e+01 3.000000e+00
         vertex -1.353538e+02 -2.404077e+01 3.000000e+00
         vertex -1.326217e+02 -2.204077e+01 3.000000e+00
      endloop
   endfacet
   facet normal 0.000000e+00 -0.000000e+00 1.000000e+00
      outer loop
         vertex -1.353538e+02 -2.404077e+01 3.000000e+00
         vertex -1.346217e+02 -2.477282e+01 3.000000e+00
         vertex -1.326217e+02 -2.204077e+01 3.000000e+00
      endloop
   endfacet
   facet normal 0.000000e+00 -0.000000e+00 1.000000e+00
      outer loop
         vertex -1.346217e+02 -2.477282e+01 3.000000e+00
         vertex -1.336217e+02 -2.504077e+01 3.000000e+00
         vertex -1.326217e+02 -2.204077e+01 3.000000e+00
      endloop
   endfacet
   facet normal 0.000000e+00 0.000000e+00 1.000000e+00
      outer loop
         vertex -1.336217e+02 -2.504077e+01 3.000000e+00
         vertex 6.237827e+01 -2.504077e+01 3.000000e+00
         vertex -1.326217e+02 -2.204077e+01 3.000000e+00
      endloop
   endfacet
   facet normal 0.000000e+00 0.000000e+00 1.000000e+00
      outer loop
         vertex 6.237827e+01 -2.504077e+01 3.000000e+00
         vertex 6.379248e+01 -2.445498e+01 3.000000e+00
         vertex 6.137827e+01 -2.204077e+01 3.000000e+00
      endloop
   endfacet
   facet normal 0.000000e+00 0.000000e+00 1.000000e+00
      outer loop
         vertex 6.379248e+01 -2.445498e+01 3.000000e+00
         vertex 6.437827e+01 -2.304077e+01 3.000000e+00
         vertex 6.137827e+01 -2.204077e+01 3.000000e+00
      endloop
   endfacet
   facet normal -0.000000e+00 0.000000e+00 1.000000e+00
      outer loop
         vertex 6.137827e+01 -2.204077e+01 3.000000e+00
         vertex -1.326217e+02 -2.204077e+01 3.000000e+00
         vertex 6.237827e+01 -2.504077e+01 3.000000e+00
      endloop
   endfacet
   facet normal 0.000000e+00 0.000000e+00 1.000000e+00
      outer loop
         vertex -1.326217e+02 -2.204077e+01 3.000000e+00
         vertex -1.326217e+02 2.195923e+01 3.000000e+00
         vertex -1.356217e+02 2.295923e+01 3.000000e+00
      endloop
   endfacet
   facet normal 0.000000e+00 -0.000000e+00 1.000000e+00
      outer loop
         vertex -1.326217e+02 2.195923e+01 3.000000e+00
         vertex 6.137827e+01 2.195923e+01 3.000000e+00
         vertex 6.237827e+01 2.495923e+01 3.000000e+00
      endloop
   endfacet
   facet normal 0.000000e+00 0.000000e+00 1.000000e+00
      outer loop
         vertex 6.137827e+01 2.195923e+01 3.000000e+00
         vertex 6.137827e+01 -2.204077e+01 3.000000e+00
         vertex 6.437827e+01 2.295923e+01 3.000000e+00
      endloop
   endfacet
   facet normal -0.000000e+00 1.000000e+00 0.000000e+00
      outer loop
         vertex -1.326217e+02 2.195923e+01 3.000000e+00
         vertex -1.326217e+02 2.195923e+01 5.000000e+00
         vertex 6.137827e+01 2.195923e+01 5.000000e+00
      endloop
   endfacet
   facet normal 0.000000e+00 1.000000e+00 -0.000000e+00
      outer loop
         vertex 6.137827e+01 2.195923e+01 5.000000e+00
         vertex 6.137827e+01 2.195923e+01 3.000000e+00
         vertex -1.326217e+02 2.195923e+01 3.000000e+00
      endloop
   endfacet
   facet normal 1.000000e+00 0.000000e+00 0.000000e+00
      outer loop
         vertex 6.137827e+01 2.195923e+01 3.000000e+00
         vertex 6.137827e+01 2.195923e+01 5.000000e+00
         vertex 6.137827e+01 -2.204077e+01 5.000000e+00
      endloop
   endfacet
   facet normal 1.000000e+00 0.000000e+00 0.000000e+00
      outer loop
         vertex 6.137827e+01 -2.204077e+01 5.000000e+00
         vertex 6.137827e+01 -2.204077e+01 3.000000e+00
         vertex 6.137827e+01 2.195923e+01 3.000000e+00
      endloop
   endfacet
   facet normal -0.000000e+00 -1.000000e+00 -0.000000e+00
      outer loop
         vertex 6.137827e+01 -2.204077e+01 3.000000e+00
         vertex 6.137827e+01 -2.204077e+01 5.000000e+00
         vertex -1.326217e+02 -2.204077e+01 5.000000e+00
      endloop
   endfacet
   facet normal 0.000000e+00 -1.000000e+00 0.000000e+00
      outer loop
         vertex -1.326217e+02 -2.204077e+01 5.000000e+00
         vertex -1.326217e+02 -2.204077e+01 3.000000e+00
         vertex 6.137827e+01 -2.204077e+01 3.000000e+00
      endloop
   endfacet
   facet normal -1.000000e+00 0.000000e+00 0.000000e+00
      outer loop
         vertex -1.326217e+02 -2.204077e+01 3.000000e+00
         vertex -1.326217e+02 -2.204077e+01 5.000000e+00
         vertex -1.326217e+02 2.195923e+01 5.000000e+00
      endloop
   endfacet
   facet normal -1.000000e+00 0.000000e+00 0.000000e+00
      outer loop
         vertex -1.326217e+02 2.195923e+01 5.000000e+00
         vertex -1.326217e+02 2.195923e+01 3.000000e+00
         vertex -1.326217e+02 -2.204077e+01 3.000000e+00
      endloop
   endfacet
   facet normal -1.000000e+00 -0.000000e+00 -0.000000e+00
      outer loop
         vertex -1.356217e+02 -2.304077e+01 3.000000e+00
         vertex -1.356217e+02 2.295923e+01 3.000000e+00
         vertex -1.356217e+02 2.295923e+01 0.000000e+00
      endloop
   endfacet
   facet normal -1.000000e+00 0.000000e+00 0.000000e+00
      outer loop
         vertex -1.356217e+02 2.295923e+01 0.000000e+00
         vertex -1.356217e+02 -2.304077e+01 0.000000e+00
         vertex -1.356217e+02 -2.304077e+01 3.000000e+00
      endloop
   endfacet
   facet normal 0.000000e+00 -1.000000e+00 0.000000e+00
      outer loop
         vertex -1.336217e+02 -2.504077e+01 0.000000e+00
         vertex 6.237827e+01 -2.504077e+01 0.000000e+00
         vertex 6.237827e+01 -2.504077e+01 3.000000e+00
      endloop
   endfacet
   facet normal 0.000000e+00 -1.000000e+00 0.000000e+00
      outer loop
         vertex 6.237827e+01 -2.504077e+01 3.000000e+00
         vertex -1.336217e+02 -2.504077e+01 3.000000e+00
         vertex -1.336217e+02 -2.504077e+01 0.000000e+00
      endloop
   endfacet
   facet normal 1.000000e+00 0.000000e+00 -0.000000e+00
      outer loop
         vertex 6.437827e+01 -2.304077e+01 0.000000e+00
         vertex 6.437827e+01 2.295923e+01 0.000000e+00
         vertex 6.437827e+01 2.295923e+01 3.000000e+00
      endloop
   endfacet
   facet normal 1.000000e+00 -0.000000e+00 0.000000e+00
      outer loop
         vertex 6.437827e+01 2.295923e+01 3.000000e+00
         vertex 6.437827e+01 -2.304077e+01 3.000000e+00
         vertex 6.437827e+01 -2.304077e+01 0.000000e+00
      endloop
   endfacet
   facet normal 0.000000e+00 1.000000e+00 0.000000e+00
      outer loop
         vertex -1.336217e+02 2.495923e+01 3.000000e+00
         vertex 6.237827e+01 2.495923e+01 3.000000e+00
         vertex 6.237827e+01 2.495923e+01 0.000000e+00
      endloop
   endfacet
   facet normal 0.000000e+00 1.000000e+00 0.000000e+00
      outer loop
         vertex 6.237827e+01 2.495923e+01 0.000000e+00
         vertex -1.336217e+02 2.495923e+01 0.000000e+00
         vertex -1.336217e+02 2.495923e+01 3.000000e+00
      endloop
   endfacet
   facet normal 0.000000e+00 0.000000e+00 1.000000e+00
      outer loop
         vertex -1.312019e+02 2.053943e+01 8.000000e+00
         vertex -1.312019e+02 -2.062096e+01 8.000000e+00
         vertex 5.995847e+01 -2.062096e+01 8.000000e+00
      endloop
   endfacet
   facet normal 0.000000e+00 0.000000e+00 1.000000e+00
      outer loop
         vertex 5.995847e+01 -2.062096e+01 8.000000e+00
         vertex 5.995847e+01 2.053943e+01 8.000000e+00
         vertex -1.312019e+02 2.053943e+01 8.000000e+00
      endloop
   endfacet
   facet normal 0.000000e+00 0.000000e+00 -1.000000e+00
      outer loop
         vertex -1.336217e+02 -2.504077e+01 0.000000e+00
         vertex -1.336217e+02 2.495923e+01 0.000000e+00
         vertex 6.237827e+01 2.495923e+01 0.000000e+00
      endloop
   endfacet
   facet normal 0.000000e+00 -0.000000e+00 -1.000000e+00
      outer loop
         vertex -1.353538e+02 2.395923e+01 0.000000e+00
         vertex -1.346217e+02 2.469128e+01 0.000000e+00
         vertex -1.336217e+02 2.495923e+01 0.000000e+00
      endloop
   endfacet
   facet normal 0.000000e+00 0.000000e+00 -1.000000e+00
      outer loop
         vertex -1.336217e+02 2.495923e+01 0.000000e+00
         vertex -1.356217e+02 2.295923e+01 0.000000e+00
         vertex -1.353538e+02 2.395923e+01 0.000000e+00
      endloop
   endfacet
   facet normal 0.000000e+00 0.000000e+00 -1.000000e+00
      outer loop
         vertex -1.336217e+02 2.495923e+01 0.000000e+00
         vertex -1.356217e+02 -2.304077e+01 0.000000e+00
         vertex -1.356217e+02 2.295923e+01 0.000000e+00
      endloop
   endfacet
   facet normal 0.000000e+00 0.000000e+00 -1.000000e+00
      outer loop
         vertex -1.336217e+02 -2.504077e+01 0.000000e+00
         vertex -1.353538e+02 -2.404077e+01 0.000000e+00
         vertex -1.356217e+02 -2.304077e+01 0.000000e+00
      endloop
   endfacet
   facet normal 0.000000e+00 0.000000e+00 -1.000000e+00
      outer loop
         vertex -1.336217e+02 -2.504077e+01 0.000000e+00
         vertex -1.346217e+02 -2.477282e+01 0.000000e+00
         vertex -1.353538e+02 -2.404077e+01 0.000000e+00
      endloop
   endfacet
   facet normal 0.000000e+00 0.000000e+00 -1.000000e+00
      outer loop
         vertex 6.237827e+01 2.495923e+01 0.000000e+00
         vertex 6.237827e+01 -2.504077e+01 0.000000e+00
         vertex -1.336217e+02 -2.504077e+01 0.000000e+00
      endloop
   endfacet
   facet normal -0.000000e+00 0.000000e+00 -1.000000e+00
      outer loop
         vertex 6.437827e+01 -2.304077e+01 0.000000e+00
         vertex 6.379248e+01 -2.445498e+01 0.000000e+00
         vertex 6.237827e+01 -2.504077e+01 0.000000e+00
      endloop
   endfacet
   facet normal -0.000000e+00 -0.000000e+00 -1.000000e+00
      outer loop
         vertex 6.237827e+01 2.495923e+01 0.000000e+00
         vertex 6.437827e+01 2.295923e+01 0.000000e+00
         vertex 6.437827e+01 -2.304077e+01 0.000000e+00
      endloop
   endfacet
   facet normal -0.000000e+00 -0.000000e+00 -1.000000e+00
      outer loop
         vertex 6.237827e+01 2.495923e+01 0.000000e+00
         vertex 6.411032e+01 2.395923e+01 0.000000e+00
         vertex 6.437827e+01 2.295923e+01 0.000000e+00
      endloop
   endfacet
   facet normal -0.000000e+00 -0.000000e+00 -1.000000e+00
      outer loop
         vertex 6.237827e+01 2.495923e+01 0.000000e+00
         vertex 6.337827e+01 2.469128e+01 0.000000e+00
         vertex 6.411032e+01 2.395923e+01 0.000000e+00
      endloop
   endfacet
   facet normal 0.000000e+00 -0.000000e+00 -1.000000e+00
      outer loop
         vertex -1.356217e+02 -2.304077e+01 0.000000e+00
         vertex -1.336217e+02 2.495923e+01 0.000000e+00
         vertex -1.336217e+02 -2.504077e+01 0.000000e+00
      endloop
   endfacet
   facet normal 0.000000e+00 0.000000e+00 -1.000000e+00
      outer loop
         vertex 6.437827e+01 -2.304077e+01 0.000000e+00
         vertex 6.237827e+01 -2.504077e+01 0.000000e+00
         vertex 6.237827e+01 2.495923e+01 0.000000e+00
      endloop
   endfacet
   facet normal 0.000000e+00 -9.805806e-01 1.961166e-01
      outer loop
         vertex 6.137827e+01 -2.204077e+01 5.000000e+00
         vertex 6.093904e+01 -2.160154e+01 7.196116e+00
         vertex -1.321825e+02 -2.160154e+01 7.196116e+00
      endloop
   endfacet
   facet normal 0.000000e+00 -9.805806e-01 1.961166e-01
      outer loop
         vertex -1.321825e+02 -2.160154e+01 7.196116e+00
         vertex -1.326217e+02 -2.204077e+01 5.000000e+00
         vertex 6.137827e+01 -2.204077e+01 5.000000e+00
      endloop
   endfacet
   facet normal 9.805806e-01 0.000000e+00 1.961166e-01
      outer loop
         vertex 6.137827e+01 2.195923e+01 5.000000e+00
         vertex 6.093904e+01 2.152001e+01 7.196116e+00
         vertex 6.093904e+01 -2.160154e+01 7.196116e+00
      endloop
   endfacet
   facet normal 9.805806e-01 -0.000000e+00 1.961166e-01
      outer loop
         vertex 6.093904e+01 -2.160154e+01 7.196116e+00
         vertex 6.137827e+01 -2.204077e+01 5.000000e+00
         vertex 6.137827e+01 2.195923e+01 5.000000e+00
      endloop
   endfacet
   facet normal -0.000000e+00 9.805807e-01 1.961158e-01
      outer loop
         vertex -1.326217e+02 2.195923e+01 5.000000e+00
         vertex -1.321825e+02 2.152001e+01 7.196116e+00
         vertex 6.093904e+01 2.152001e+01 7.196116e+00
      endloop
   endfacet
   facet normal 0.000000e+00 9.805807e-01 1.961158e-01
      outer loop
         vertex 6.093904e+01 2.152001e+01 7.196116e+00
         vertex 6.137827e+01 2.195923e+01 5.000000e+00
         vertex -1.326217e+02 2.195923e+01 5.000000e+00
      endloop
   endfacet
   facet normal -9.805806e-01 0.000000e+00 1.961166e-01
      outer loop
         vertex -1.326217e+02 -2.204077e+01 5.000000e+00
         vertex -1.321825e+02 -2.160154e+01 7.196116e+00
         vertex -1.321825e+02 2.152001e+01 7.196116e+00
      endloop
   endfacet
   facet normal -9.805806e-01 0.000000e+00 1.961166e-01
      outer loop
         vertex -1.321825e+02 2.152001e+01 7.196116e+00
         vertex -1.326217e+02 2.195923e+01 5.000000e+00
         vertex -1.326217e+02 -2.204077e+01 5.000000e+00
      endloop
   endfacet
   facet normal 0.000000e+00 -3.814260e-01 9.243994e-01
      outer loop
         vertex -1.312019e+02 -2.062096e+01 8.000000e+00
         vertex 6.066364e+01 -2.132614e+01 7.709029e+00
         vertex 5.995847e+01 -2.062096e+01 8.000000e+00
      endloop
   endfacet
   facet normal 0.000000e+00 -8.810324e-01 4.730560e-01
      outer loop
         vertex -1.319071e+02 -2.132614e+01 7.709029e+00
         vertex 6.093904e+01 -2.160154e+01 7.196116e+00
         vertex 6.066364e+01 -2.132614e+01 7.709029e+00
      endloop
   endfacet
   facet normal 0.000000e+00 -8.810324e-01 4.730560e-01
      outer loop
         vertex -1.319071e+02 -2.132614e+01 7.709029e+00
         vertex -1.321825e+02 -2.160154e+01 7.196116e+00
         vertex 6.093904e+01 -2.160154e+01 7.196116e+00
      endloop
   endfacet
   facet normal 0.000000e+00 -3.814260e-01 9.243994e-01
      outer loop
         vertex 6.066364e+01 -2.132614e+01 7.709029e+00
         vertex -1.312019e+02 -2.062096e+01 8.000000e+00
         vertex -1.319071e+02 -2.132614e+01 7.709029e+00
      endloop
   endfacet
   facet normal 3.814269e-01 0.000000e+00 9.243990e-01
      outer loop
         vertex 6.066364e+01 -2.132614e+01 7.709029e+00
         vertex 6.066364e+01 2.124461e+01 7.709029e+00
         vertex 5.995847e+01 2.053943e+01 8.000000e+00
      endloop
   endfacet
   facet normal 8.810310e-01 0.000000e+00 4.730585e-01
      outer loop
         vertex 6.093904e+01 -2.160154e+01 7.196116e+00
         vertex 6.093904e+01 2.152001e+01 7.196116e+00
         vertex 6.066364e+01 2.124461e+01 7.709029e+00
      endloop
   endfacet
   facet normal 8.810310e-01 -0.000000e+00 4.730585e-01
      outer loop
         vertex 6.066364e+01 2.124461e+01 7.709029e+00
         vertex 6.066364e+01 -2.132614e+01 7.709029e+00
         vertex 6.093904e+01 -2.160154e+01 7.196116e+00
      endloop
   endfacet
   facet normal 3.814269e-01 -0.000000e+00 9.243990e-01
      outer loop
         vertex 5.995847e+01 2.053943e+01 8.000000e+00
         vertex 5.995847e+01 -2.062096e+01 8.000000e+00
         vertex 6.066364e+01 -2.132614e+01 7.709029e+00
      endloop
   endfacet
   facet normal -0.000000e+00 3.814260e-01 9.243994e-01
      outer loop
         vertex 6.066364e+01 2.124461e+01 7.709029e+00
         vertex -1.319071e+02 2.124461e+01 7.709029e+00
         vertex -1.312019e+02 2.053943e+01 8.000000e+00
      endloop
   endfacet
   facet normal -0.000000e+00 8.810310e-01 4.730585e-01
      outer loop
         vertex 6.093904e+01 2.152001e+01 7.196116e+00
         vertex -1.321825e+02 2.152001e+01 7.196116e+00
         vertex -1.319071e+02 2.124461e+01 7.709029e+00
      endloop
   endfacet
   facet normal 0.000000e+00 8.810310e-01 4.730585e-01
      outer loop
         vertex -1.319071e+02 2.124461e+01 7.709029e+00
         vertex 6.066364e+01 2.124461e+01 7.709029e+00
         vertex 6.093904e+01 2.152001e+01 7.196116e+00
      endloop
   endfacet
   facet normal 0.000000e+00 3.814260e-01 9.243994e-01
      outer loop
         vertex -1.312019e+02 2.053943e+01 8.000000e+00
         vertex 5.995847e+01 2.053943e+01 8.000000e+00
         vertex 6.066364e+01 2.124461e+01 7.709029e+00
      endloop
   endfacet
   facet normal -3.814304e-01 0.000000e+00 9.243976e-01
      outer loop
         vertex -1.312019e+02 2.053943e+01 8.000000e+00
         vertex -1.319071e+02 -2.132614e+01 7.709029e+00
         vertex -1.312019e+02 -2.062096e+01 8.000000e+00
      endloop
   endfacet
   facet normal -8.810283e-01 0.000000e+00 4.730636e-01
      outer loop
         vertex -1.319071e+02 2.124461e+01 7.709029e+00
         vertex -1.321825e+02 -2.160154e+01 7.196116e+00
         vertex -1.319071e+02 -2.132614e+01 7.709029e+00
      endloop
   endfacet
   facet normal -8.810283e-01 0.000000e+00 4.730636e-01
      outer loop
         vertex -1.319071e+02 2.124461e+01 7.709029e+00
         vertex -1.321825e+02 2.152001e+01 7.196116e+00
         vertex -1.321825e+02 -2.160154e+01 7.196116e+00
      endloop
   endfacet
   facet normal -3.814304e-01 0.000000e+00 9.243976e-01
      outer loop
         vertex -1.319071e+02 -2.132614e+01 7.709029e+00
         vertex -1.312019e+02 2.053943e+01 8.000000e+00
         vertex -1.319071e+02 2.124461e+01 7.709029e+00
      endloop
   endfacet
   facet normal -2.588198e-01 -9.659256e-01 0.000000e+00
      outer loop
         vertex -1.346217e+02 -2.477282e+01 3.000000e+00
         vertex -1.346217e+02 -2.477282e+01 0.000000e+00
         vertex -1.336217e+02 -2.504077e+01 0.000000e+00
      endloop
   endfacet
   facet normal -2.588198e-01 -9.659256e-01 0.000000e+00
      outer loop
         vertex -1.336217e+02 -2.504077e+01 3.000000e+00
         vertex -1.346217e+02 -2.477282e+01 3.000000e+00
         vertex -1.336217e+02 -2.504077e+01 0.000000e+00
      endloop
   endfacet
   facet normal -7.071040e-01 -7.071095e-01 0.000000e+00
      outer loop
         vertex -1.353538e+02 -2.404077e+01 3.000000e+00
         vertex -1.353538e+02 -2.404077e+01 0.000000e+00
         vertex -1.346217e+02 -2.477282e+01 0.000000e+00
      endloop
   endfacet
   facet normal -7.071040e-01 -7.071095e-01 0.000000e+00
      outer loop
         vertex -1.346217e+02 -2.477282e+01 3.000000e+00
         vertex -1.353538e+02 -2.404077e+01 3.000000e+00
         vertex -1.346217e+02 -2.477282e+01 0.000000e+00
      endloop
   endfacet
   facet normal -9.659270e-01 -2.588147e-01 0.000000e+00
      outer loop
         vertex -1.356217e+02 -2.304077e+01 3.000000e+00
         vertex -1.356217e+02 -2.304077e+01 0.000000e+00
         vertex -1.353538e+02 -2.404077e+01 0.000000e+00
      endloop
   endfacet
   facet normal -9.659270e-01 -2.588147e-01 0.000000e+00
      outer loop
         vertex -1.353538e+02 -2.404077e+01 3.000000e+00
         vertex -1.356217e+02 -2.304077e+01 3.000000e+00
         vertex -1.353538e+02 -2.404077e+01 0.000000e+00
      endloop
   endfacet
   facet normal -9.659270e-01 2.588147e-01 0.000000e+00
      outer loop
         vertex -1.353538e+02 2.395923e+01 3.000000e+00
         vertex -1.353538e+02 2.395923e+01 0.000000e+00
         vertex -1.356217e+02 2.295923e+01 0.000000e+00
      endloop
   endfacet
   facet normal -9.659270e-01 2.588147e-01 0.000000e+00
      outer loop
         vertex -1.356217e+02 2.295923e+01 3.000000e+00
         vertex -1.353538e+02 2.395923e+01 3.000000e+00
         vertex -1.356217e+02 2.295923e+01 0.000000e+00
      endloop
   endfacet
   facet normal -7.071049e-01 7.071086e-01 0.000000e+00
      outer loop
         vertex -1.346217e+02 2.469128e+01 3.000000e+00
         vertex -1.346217e+02 2.469128e+01 0.000000e+00
         vertex -1.353538e+02 2.395923e+01 0.000000e+00
      endloop
   endfacet
   facet normal -7.071049e-01 7.071086e-01 0.000000e+00
      outer loop
         vertex -1.353538e+02 2.395923e+01 3.000000e+00
         vertex -1.346217e+02 2.469128e+01 3.000000e+00
         vertex -1.353538e+02 2.395923e+01 0.000000e+00
      endloop
   endfacet
   facet normal -2.588181e-01 9.659261e-01 0.000000e+00
      outer loop
         vertex -1.336217e+02 2.495923e+01 3.000000e+00
         vertex -1.336217e+02 2.495923e+01 0.000000e+00
         vertex -1.346217e+02 2.469128e+01 0.000000e+00
      endloop
   endfacet
   facet normal -2.588181e-01 9.659261e-01 0.000000e+00
      outer loop
         vertex -1.346217e+02 2.469128e+01 3.000000e+00
         vertex -1.336217e+02 2.495923e+01 3.000000e+00
         vertex -1.346217e+02 2.469128e+01 0.000000e+00
      endloop
   endfacet
   facet normal 9.238798e-01 -3.826827e-01 0.000000e+00
      outer loop
         vertex 6.379248e+01 -2.445498e+01 3.000000e+00
         vertex 6.379248e+01 -2.445498e+01 0.000000e+00
         vertex 6.437827e+01 -2.304077e+01 0.000000e+00
      endloop
   endfacet
   facet normal 9.238798e-01 -3.826827e-01 0.000000e+00
      outer loop
         vertex 6.437827e+01 -2.304077e+01 3.000000e+00
         vertex 6.379248e+01 -2.445498e+01 3.000000e+00
         vertex 6.437827e+01 -2.304077e+01 0.000000e+00
      endloop
   endfacet
   facet normal 3.826842e-01 -9.238792e-01 0.000000e+00
      outer loop
         vertex 6.237827e+01 -2.504077e+01 3.000000e+00
         vertex 6.237827e+01 -2.504077e+01 0.000000e+00
         vertex 6.379248e+01 -2.445498e+01 0.000000e+00
      endloop
   endfacet
   facet normal 3.826842e-01 -9.238792e-01 0.000000e+00
      outer loop
         vertex 6.379248e+01 -2.445498e+01 3.000000e+00
         vertex 6.237827e+01 -2.504077e+01 3.000000e+00
         vertex 6.379248e+01 -2.445498e+01 0.000000e+00
      endloop
   endfacet
   facet normal 2.588181e-01 9.659261e-01 -0.000000e+00
      outer loop
         vertex 6.337827e+01 2.469128e+01 3.000000e+00
         vertex 6.337827e+01 2.469128e+01 0.000000e+00
         vertex 6.237827e+01 2.495923e+01 0.000000e+00
      endloop
   endfacet
   facet normal 2.588181e-01 9.659261e-01 0.000000e+00
      outer loop
         vertex 6.237827e+01 2.495923e+01 3.000000e+00
         vertex 6.337827e+01 2.469128e+01 3.000000e+00
         vertex 6.237827e+01 2.495923e+01 0.000000e+00
      endloop
   endfacet
   facet normal 7.071068e-01 7.071068e-01 -0.000000e+00
      outer loop
         vertex 6.411032e+01 2.395923e+01 3.000000e+00
         vertex 6.411032e+01 2.395923e+01 0.000000e+00
         vertex 6.337827e+01 2.469128e+01 0.000000e+00
      endloop
   endfacet
   facet normal 7.071068e-01 7.071068e-01 0.000000e+00
      outer loop
         vertex 6.337827e+01 2.469128e+01 3.000000e+00
         vertex 6.411032e+01 2.395923e+01 3.000000e+00
         vertex 6.337827e+01 2.469128e+01 0.000000e+00
      endloop
   endfacet
   facet normal 9.659270e-01 2.588147e-01 -0.000000e+00
      outer loop
         vertex 6.437827e+01 2.295923e+01 3.000000e+00
         vertex 6.437827e+01 2.295923e+01 0.000000e+00
         vertex 6.411032e+01 2.395923e+01 0.000000e+00
      endloop
   endfacet
   facet normal 9.659270e-01 2.588147e-01 0.000000e+00
      outer loop
         vertex 6.411032e+01 2.395923e+01 3.000000e+00
         vertex 6.437827e+01 2.295923e+01 3.000000e+00
         vertex 6.411032e+01 2.395923e+01 0.000000e+00
      endloop
   endfacet
endsolid
